<svg width="1000" height="470" viewBox="0 0 1000 470" xmlns="http://www.w3.org/2000/svg">
<defs><linearGradient id="velyxoraEdge" x1="0" x2="1"><stop stop-color="#7C3AED"/><stop offset="1" stop-color="#22D3EE"/></linearGradient><style>.meta{font:700 14px monospace;fill:#A855F7}.status{font:700 14px monospace;fill:#22D3EE}.title{font:700 30px monospace;fill:#E6EDF3}.sub{font:500 18px monospace;fill:#C9D1D9}.label{font:700 14px monospace;fill:#8B949E}.text{font:600 17px monospace;fill:#E6EDF3}.api{font:600 16px monospace;fill:#22D3EE}</style></defs>
<rect x="1" y="1" width="998" height="468" rx="14" fill="#0D1117" stroke="url(#velyxoraEdge)" stroke-width="2"/><rect x="24" y="22" width="952" height="42" rx="7" fill="#161B22"/><text x="44" y="49" class="meta">PROJECT 05</text><text x="950" y="49" text-anchor="end" class="status">IN DEVELOPMENT</text>
<text x="40" y="112" class="title">VELYXORA</text><text x="40" y="143" class="sub">Full-Stack Authentication System</text>
<text x="40" y="190" class="label">CURRENT FOCUS</text><text x="40" y="222" class="text">Authentication • Cookie Sessions • Rate Limiting</text><line x1="40" y1="247" x2="960" y2="247" stroke="#30363D"/>
<text x="40" y="286" class="label">FRONTEND</text><text x="40" y="320" class="text">React</text><text x="40" y="349" class="text">Vite</text><text x="40" y="378" class="text">TypeScript</text>
<line x1="330" y1="276" x2="330" y2="397" stroke="#30363D"/><text x="370" y="286" class="label">BACKEND</text><text x="370" y="320" class="text">Node.js</text><text x="370" y="349" class="text">Express</text><text x="370" y="378" class="text">TypeScript</text>
<line x1="650" y1="276" x2="650" y2="397" stroke="#30363D"/><text x="690" y="286" class="label">API</text><text x="690" y="329" class="api">/api/auth/login</text><text x="690" y="365" class="api">/api/auth/me</text>
<rect x="40" y="432" width="920" height="3" rx="2" fill="url(#velyxoraEdge)"/>
</svg>
